<svg width="16" height="16" viewBox="0 0 16 16" fill="none" xmlns="http://www.w3.org/2000/svg">
<path d="M15.3333 8.00008C15.3333 8.00008 15.3333 5.43341 15.0267 4.28008C14.86 3.64675 14.36 3.14675 13.7333 2.97341C12.5867 2.66675 7.99999 2.66675 7.99999 2.66675C7.99999 2.66675 3.41332 2.66675 2.26666 2.97341C1.63332 3.14008 1.13999 3.64675 0.973323 4.28008C0.666657 5.43341 0.666656 8.00008 0.666656 8.00008C0.666656 8.00008 0.693323 10.5667 0.99999 11.7201C1.16666 12.3534 1.66666 12.8534 2.29999 13.0267C3.43999 13.3334 8.02666 13.3334 8.02666 13.3334C8.02666 13.3334 12.6133 13.3334 13.76 13.0267C14.3933 12.8601 14.8867 12.3534 15.0533 11.7201C15.36 10.5667 15.3333 8.00008 15.3333 8.00008ZM6.66666 10.1801V5.82008L10.3333 8.00008L6.66666 10.1801Z" fill="white"/>
</svg>
